%TF.GenerationSoftware,KiCad,Pcbnew,10.0.5*%
%TF.CreationDate,2026-08-28T03:18:21+03:00*%
%TF.ProjectId,stm32-field-node,73746d33-322d-4666-9965-6c642d6e6f64,rev?*%
%TF.SameCoordinates,Original*%
%TF.FileFunction,Soldermask,Top*%
%TF.FilePolarity,Negative*%
%FSLAX46Y46*%
G04 Gerber Fmt 4.6, Leading zero omitted, Abs format (unit mm)*
G04 Created by KiCad (PCBNEW 10.0.5) date 2026-08-28 03:18:21*
%MOMM*%
%LPD*%
G01*
G04 APERTURE LIST*
G04 Aperture macros list*
%AMRoundRect*
0 Rectangle with rounded corners*
0 $1 Rounding radius*
0 $2 $3 $4 $5 $6 $7 $8 $9 X,Y pos of 4 corners*
0 Add a 4 corners polygon primitive as box body*
4,1,4,$2,$3,$4,$5,$6,$7,$8,$9,$2,$3,0*
0 Add four circle primitives for the rounded corners*
1,1,$1+$1,$2,$3*
1,1,$1+$1,$4,$5*
1,1,$1+$1,$6,$7*
1,1,$1+$1,$8,$9*
0 Add four rect primitives between the rounded corners*
20,1,$1+$1,$2,$3,$4,$5,0*
20,1,$1+$1,$4,$5,$6,$7,0*
20,1,$1+$1,$6,$7,$8,$9,0*
20,1,$1+$1,$8,$9,$2,$3,0*%
G04 Aperture macros list end*
%ADD10C,0.650000*%
%ADD11RoundRect,0.150000X-0.150000X-0.350000X0.150000X-0.350000X0.150000X0.350000X-0.150000X0.350000X0*%
%ADD12RoundRect,0.150000X-0.150000X-0.425000X0.150000X-0.425000X0.150000X0.425000X-0.150000X0.425000X0*%
%ADD13RoundRect,0.075000X-0.075000X-0.500000X0.075000X-0.500000X0.075000X0.500000X-0.075000X0.500000X0*%
%ADD14O,1.000000X2.100000*%
%ADD15O,1.000000X1.800000*%
%ADD16RoundRect,0.125000X-0.625000X-0.125000X0.625000X-0.125000X0.625000X0.125000X-0.625000X0.125000X0*%
%ADD17RoundRect,0.125000X-0.125000X-0.625000X0.125000X-0.625000X0.125000X0.625000X-0.125000X0.625000X0*%
%ADD18RoundRect,0.150000X-0.512500X-0.150000X0.512500X-0.150000X0.512500X0.150000X-0.512500X0.150000X0*%
%ADD19RoundRect,0.250000X-0.475000X0.250000X-0.475000X-0.250000X0.475000X-0.250000X0.475000X0.250000X0*%
%ADD20RoundRect,0.112500X0.187500X0.112500X-0.187500X0.112500X-0.187500X-0.112500X0.187500X-0.112500X0*%
%ADD21RoundRect,0.200000X-0.200000X-0.275000X0.200000X-0.275000X0.200000X0.275000X-0.200000X0.275000X0*%
%ADD22RoundRect,0.250000X-0.250000X-0.475000X0.250000X-0.475000X0.250000X0.475000X-0.250000X0.475000X0*%
%ADD23RoundRect,0.225000X-0.250000X0.225000X-0.250000X-0.225000X0.250000X-0.225000X0.250000X0.225000X0*%
%ADD24RoundRect,0.225000X0.250000X-0.225000X0.250000X0.225000X-0.250000X0.225000X-0.250000X-0.225000X0*%
%ADD25RoundRect,0.250000X0.475000X-0.250000X0.475000X0.250000X-0.475000X0.250000X-0.475000X-0.250000X0*%
%ADD26R,1.700000X1.700000*%
%ADD27C,1.700000*%
G04 APERTURE END LIST*
D10*
%TO.C,J1*%
X75360000Y-77575000D03*
X81140000Y-77575000D03*
D11*
X75050000Y-76500000D03*
D12*
X75850000Y-76500000D03*
D13*
X77000000Y-76500000D03*
X78000000Y-76500000D03*
X78500000Y-76500000D03*
X79500000Y-76500000D03*
D12*
X80650000Y-76500000D03*
D11*
X81450000Y-76500000D03*
X81450000Y-76500000D03*
D12*
X80650000Y-76500000D03*
D13*
X80000000Y-76500000D03*
X79000000Y-76500000D03*
X77500000Y-76500000D03*
X76500000Y-76500000D03*
D12*
X75850000Y-76500000D03*
D11*
X75050000Y-76500000D03*
D14*
X73930000Y-77075000D03*
D15*
X73930000Y-81255000D03*
D14*
X82570000Y-77075000D03*
D15*
X82570000Y-81255000D03*
%TD*%
D16*
%TO.C,STM32G0 *%
X90825000Y-63700000D03*
X90825000Y-64500000D03*
X90825000Y-65300000D03*
X90825000Y-66100000D03*
X90825000Y-66900000D03*
X90825000Y-67700000D03*
X90825000Y-68500000D03*
X90825000Y-69300000D03*
D17*
X92200000Y-70675000D03*
X93000000Y-70675000D03*
X93800000Y-70675000D03*
X94600000Y-70675000D03*
X95400000Y-70675000D03*
X96200000Y-70675000D03*
X97000000Y-70675000D03*
X97800000Y-70675000D03*
D16*
X99175000Y-69300000D03*
X99175000Y-68500000D03*
X99175000Y-67700000D03*
X99175000Y-66900000D03*
X99175000Y-66100000D03*
X99175000Y-65300000D03*
X99175000Y-64500000D03*
X99175000Y-63700000D03*
D17*
X97800000Y-62325000D03*
X97000000Y-62325000D03*
X96200000Y-62325000D03*
X95400000Y-62325000D03*
X94600000Y-62325000D03*
X93800000Y-62325000D03*
X93000000Y-62325000D03*
X92200000Y-62325000D03*
%TD*%
D18*
%TO.C,U2*%
X90862500Y-79550000D03*
X90862500Y-80500000D03*
X90862500Y-81450000D03*
X93137500Y-81450000D03*
X93137500Y-79550000D03*
%TD*%
D19*
%TO.C,C5*%
X97500000Y-79550000D03*
X97500000Y-81450000D03*
%TD*%
D20*
%TO.C,D2*%
X76050000Y-74000000D03*
X73950000Y-74000000D03*
%TD*%
D21*
%TO.C,R1*%
X78675000Y-74000000D03*
X80325000Y-74000000D03*
%TD*%
D22*
%TO.C,C2*%
X87000000Y-63000000D03*
X88900000Y-63000000D03*
%TD*%
D21*
%TO.C,R2*%
X85175000Y-77000000D03*
X86825000Y-77000000D03*
%TD*%
D23*
%TO.C,C1*%
X89000000Y-64950000D03*
X89000000Y-66500000D03*
%TD*%
D24*
%TO.C,C3*%
X89000000Y-69550000D03*
X89000000Y-68000000D03*
%TD*%
D25*
%TO.C,C4*%
X85500000Y-81450000D03*
X85500000Y-79550000D03*
%TD*%
D26*
%TO.C,J2 SWD*%
X77000000Y-52880000D03*
D27*
X77000000Y-55420000D03*
X77000000Y-57960000D03*
X77000000Y-60500000D03*
X77000000Y-63040000D03*
%TD*%
M02*
