%TF.GenerationSoftware,KiCad,Pcbnew,10.0.5*%
%TF.CreationDate,2026-08-28T02:23:52+03:00*%
%TF.ProjectId,stm32-field-node,73746d33-322d-4666-9965-6c642d6e6f64,rev?*%
%TF.SameCoordinates,Original*%
%TF.FileFunction,Copper,L1,Top*%
%TF.FilePolarity,Positive*%
%FSLAX46Y46*%
G04 Gerber Fmt 4.6, Leading zero omitted, Abs format (unit mm)*
G04 Created by KiCad (PCBNEW 10.0.5) date 2026-08-28 02:23:52*
%MOMM*%
%LPD*%
G01*
G04 APERTURE LIST*
G04 Aperture macros list*
%AMRoundRect*
0 Rectangle with rounded corners*
0 $1 Rounding radius*
0 $2 $3 $4 $5 $6 $7 $8 $9 X,Y pos of 4 corners*
0 Add a 4 corners polygon primitive as box body*
4,1,4,$2,$3,$4,$5,$6,$7,$8,$9,$2,$3,0*
0 Add four circle primitives for the rounded corners*
1,1,$1+$1,$2,$3*
1,1,$1+$1,$4,$5*
1,1,$1+$1,$6,$7*
1,1,$1+$1,$8,$9*
0 Add four rect primitives between the rounded corners*
20,1,$1+$1,$2,$3,$4,$5,0*
20,1,$1+$1,$4,$5,$6,$7,0*
20,1,$1+$1,$6,$7,$8,$9,0*
20,1,$1+$1,$8,$9,$2,$3,0*%
G04 Aperture macros list end*
%TA.AperFunction,SMDPad,CuDef*%
%ADD10RoundRect,0.150000X-0.150000X-0.350000X0.150000X-0.350000X0.150000X0.350000X-0.150000X0.350000X0*%
%TD*%
%TA.AperFunction,SMDPad,CuDef*%
%ADD11RoundRect,0.150000X-0.150000X-0.425000X0.150000X-0.425000X0.150000X0.425000X-0.150000X0.425000X0*%
%TD*%
%TA.AperFunction,SMDPad,CuDef*%
%ADD12RoundRect,0.075000X-0.075000X-0.500000X0.075000X-0.500000X0.075000X0.500000X-0.075000X0.500000X0*%
%TD*%
%TA.AperFunction,ComponentPad*%
%ADD13O,1.000000X2.100000*%
%TD*%
%TA.AperFunction,ComponentPad*%
%ADD14O,1.000000X1.800000*%
%TD*%
%TA.AperFunction,SMDPad,CuDef*%
%ADD15RoundRect,0.125000X-0.625000X-0.125000X0.625000X-0.125000X0.625000X0.125000X-0.625000X0.125000X0*%
%TD*%
%TA.AperFunction,SMDPad,CuDef*%
%ADD16RoundRect,0.125000X-0.125000X-0.625000X0.125000X-0.625000X0.125000X0.625000X-0.125000X0.625000X0*%
%TD*%
%TA.AperFunction,SMDPad,CuDef*%
%ADD17RoundRect,0.150000X-0.512500X-0.150000X0.512500X-0.150000X0.512500X0.150000X-0.512500X0.150000X0*%
%TD*%
%TA.AperFunction,SMDPad,CuDef*%
%ADD18RoundRect,0.250000X-0.475000X0.250000X-0.475000X-0.250000X0.475000X-0.250000X0.475000X0.250000X0*%
%TD*%
%TA.AperFunction,SMDPad,CuDef*%
%ADD19RoundRect,0.112500X0.187500X0.112500X-0.187500X0.112500X-0.187500X-0.112500X0.187500X-0.112500X0*%
%TD*%
%TA.AperFunction,SMDPad,CuDef*%
%ADD20RoundRect,0.200000X-0.200000X-0.275000X0.200000X-0.275000X0.200000X0.275000X-0.200000X0.275000X0*%
%TD*%
%TA.AperFunction,SMDPad,CuDef*%
%ADD21RoundRect,0.250000X-0.250000X-0.475000X0.250000X-0.475000X0.250000X0.475000X-0.250000X0.475000X0*%
%TD*%
%TA.AperFunction,SMDPad,CuDef*%
%ADD22RoundRect,0.225000X-0.250000X0.225000X-0.250000X-0.225000X0.250000X-0.225000X0.250000X0.225000X0*%
%TD*%
%TA.AperFunction,SMDPad,CuDef*%
%ADD23RoundRect,0.225000X0.250000X-0.225000X0.250000X0.225000X-0.250000X0.225000X-0.250000X-0.225000X0*%
%TD*%
%TA.AperFunction,SMDPad,CuDef*%
%ADD24RoundRect,0.250000X0.475000X-0.250000X0.475000X0.250000X-0.475000X0.250000X-0.475000X-0.250000X0*%
%TD*%
%TA.AperFunction,ComponentPad*%
%ADD25R,1.700000X1.700000*%
%TD*%
%TA.AperFunction,ComponentPad*%
%ADD26C,1.700000*%
%TD*%
%TA.AperFunction,ViaPad*%
%ADD27C,0.600000*%
%TD*%
%TA.AperFunction,Conductor*%
%ADD28C,0.200000*%
%TD*%
G04 APERTURE END LIST*
D10*
%TO.P,J1,A1,GND_A1*%
%TO.N,GND*%
X75050000Y-76500000D03*
D11*
%TO.P,J1,A4,VBUS_A4*%
%TO.N,/USB_5V*%
X75850000Y-76500000D03*
D12*
%TO.P,J1,A5,CC1_A5*%
%TO.N,Net-(J1-CC1)*%
X77000000Y-76500000D03*
%TO.P,J1,A6,D+_A6*%
%TO.N,unconnected-(J1-D+-PadA6)*%
X78000000Y-76500000D03*
%TO.P,J1,A7,D-_A7*%
%TO.N,unconnected-(J1-D--PadA7)*%
X78500000Y-76500000D03*
%TO.P,J1,A8,SBU1_A8*%
%TO.N,unconnected-(J1-SBU1-PadA8)*%
X79500000Y-76500000D03*
D11*
%TO.P,J1,A9,VBUS_A9*%
%TO.N,/USB_5V*%
X80650000Y-76500000D03*
D10*
%TO.P,J1,A12,GND_A12*%
%TO.N,GND*%
X81450000Y-76500000D03*
%TO.P,J1,B1,GND_B1*%
X81450000Y-76500000D03*
D11*
%TO.P,J1,B4,VBUS_B4*%
%TO.N,/USB_5V*%
X80650000Y-76500000D03*
D12*
%TO.P,J1,B5,CC2_B5*%
%TO.N,Net-(J1-CC2)*%
X80000000Y-76500000D03*
%TO.P,J1,B6,D+_B6*%
%TO.N,unconnected-(J1-D+-PadB6)*%
X79000000Y-76500000D03*
%TO.P,J1,B7,D-_B7*%
%TO.N,unconnected-(J1-D--PadB7)*%
X77500000Y-76500000D03*
%TO.P,J1,B8,SBU2_B8*%
%TO.N,unconnected-(J1-SBU2-PadB8)*%
X76500000Y-76500000D03*
D11*
%TO.P,J1,B9,VBUS_B9*%
%TO.N,/USB_5V*%
X75850000Y-76500000D03*
D10*
%TO.P,J1,B12,GND_B12*%
%TO.N,GND*%
X75050000Y-76500000D03*
D13*
%TO.P,J1,SH,SHIELD_SH*%
X73930000Y-77075000D03*
D14*
X73930000Y-81255000D03*
D13*
X82570000Y-77075000D03*
D14*
X82570000Y-81255000D03*
%TD*%
D15*
%TO.P,STM32G0 ,1,PB9_1*%
%TO.N,unconnected-(U1-PB9-Pad1)*%
X90825000Y-63700000D03*
%TO.P,STM32G0 ,2,PC14_2*%
%TO.N,unconnected-(U1-PC14-Pad2)*%
X90825000Y-64500000D03*
%TO.P,STM32G0 ,3,PC15_3*%
%TO.N,unconnected-(U1-PC15-Pad3)*%
X90825000Y-65300000D03*
%TO.P,STM32G0 ,4,VDD_4*%
%TO.N,+3V3*%
X90825000Y-66100000D03*
%TO.P,STM32G0 ,5,VSS_5*%
%TO.N,GND*%
X90825000Y-66900000D03*
%TO.P,STM32G0 ,6,PF2_6*%
%TO.N,/NRST*%
X90825000Y-67700000D03*
%TO.P,STM32G0 ,7,PA0_7*%
%TO.N,unconnected-(U1-PA0-Pad7)*%
X90825000Y-68500000D03*
%TO.P,STM32G0 ,8,PA1_8*%
%TO.N,unconnected-(U1-PA1-Pad8)*%
X90825000Y-69300000D03*
D16*
%TO.P,STM32G0 ,9,PA2_9*%
%TO.N,unconnected-(U1-PA2-Pad9)*%
X92200000Y-70675000D03*
%TO.P,STM32G0 ,10,PA3_10*%
%TO.N,unconnected-(U1-PA3-Pad10)*%
X93000000Y-70675000D03*
%TO.P,STM32G0 ,11,PA4_11*%
%TO.N,unconnected-(U1-PA4-Pad11)*%
X93800000Y-70675000D03*
%TO.P,STM32G0 ,12,PA5_12*%
%TO.N,unconnected-(U1-PA5-Pad12)*%
X94600000Y-70675000D03*
%TO.P,STM32G0 ,13,PA6_13*%
%TO.N,unconnected-(U1-PA6-Pad13)*%
X95400000Y-70675000D03*
%TO.P,STM32G0 ,14,PA7_14*%
%TO.N,unconnected-(U1-PA7-Pad14)*%
X96200000Y-70675000D03*
%TO.P,STM32G0 ,15,PB0_15*%
%TO.N,unconnected-(U1-PB0-Pad15)*%
X97000000Y-70675000D03*
%TO.P,STM32G0 ,16,PB1_16*%
%TO.N,unconnected-(U1-PB1-Pad16)*%
X97800000Y-70675000D03*
D15*
%TO.P,STM32G0 ,17,PB2_17*%
%TO.N,unconnected-(U1-PB2-Pad17)*%
X99175000Y-69300000D03*
%TO.P,STM32G0 ,18,PA8_18*%
%TO.N,unconnected-(U1-PA8-Pad18)*%
X99175000Y-68500000D03*
%TO.P,STM32G0 ,19,NC/PA9_19*%
%TO.N,unconnected-(U1-NC{slash}PA9-Pad19)*%
X99175000Y-67700000D03*
%TO.P,STM32G0 ,20,PC6_20*%
%TO.N,unconnected-(U1-PC6-Pad20)*%
X99175000Y-66900000D03*
%TO.P,STM32G0 ,21,NC/PA10_21*%
%TO.N,unconnected-(U1-NC{slash}PA10-Pad21)*%
X99175000Y-66100000D03*
%TO.P,STM32G0 ,22,PA9/PA11_22*%
%TO.N,unconnected-(U1-PA9{slash}PA11-Pad22)*%
X99175000Y-65300000D03*
%TO.P,STM32G0 ,23,PA10/PA12_23*%
%TO.N,unconnected-(U1-PA10{slash}PA12-Pad23)*%
X99175000Y-64500000D03*
%TO.P,STM32G0 ,24,PA13_24*%
%TO.N,/SWDIO*%
X99175000Y-63700000D03*
D16*
%TO.P,STM32G0 ,25,PA14_25*%
%TO.N,/SWCLK*%
X97800000Y-62325000D03*
%TO.P,STM32G0 ,26,PA15_26*%
%TO.N,unconnected-(U1-PA15-Pad26)*%
X97000000Y-62325000D03*
%TO.P,STM32G0 ,27,PB3_27*%
%TO.N,unconnected-(U1-PB3-Pad27)*%
X96200000Y-62325000D03*
%TO.P,STM32G0 ,28,PB4_28*%
%TO.N,unconnected-(U1-PB4-Pad28)*%
X95400000Y-62325000D03*
%TO.P,STM32G0 ,29,PB5_29*%
%TO.N,unconnected-(U1-PB5-Pad29)*%
X94600000Y-62325000D03*
%TO.P,STM32G0 ,30,PB6_30*%
%TO.N,unconnected-(U1-PB6-Pad30)*%
X93800000Y-62325000D03*
%TO.P,STM32G0 ,31,PB7_31*%
%TO.N,unconnected-(U1-PB7-Pad31)*%
X93000000Y-62325000D03*
%TO.P,STM32G0 ,32,PB8_32*%
%TO.N,unconnected-(U1-PB8-Pad32)*%
X92200000Y-62325000D03*
%TD*%
D17*
%TO.P,U2,1,IN_1*%
%TO.N,/USB_5V*%
X90862500Y-79550000D03*
%TO.P,U2,2,GND_2*%
%TO.N,GND*%
X90862500Y-80500000D03*
%TO.P,U2,3,EN_3*%
%TO.N,/USB_5V*%
X90862500Y-81450000D03*
%TO.P,U2,4,NC_4*%
%TO.N,unconnected-(U2-NC-Pad4)*%
X93137500Y-81450000D03*
%TO.P,U2,5,OUT_5*%
%TO.N,+3V3*%
X93137500Y-79550000D03*
%TD*%
D18*
%TO.P,C5,1*%
%TO.N,+3V3*%
X97500000Y-79550000D03*
%TO.P,C5,2*%
%TO.N,GND*%
X97500000Y-81450000D03*
%TD*%
D19*
%TO.P,D2,1,K_1*%
%TO.N,/USB_5V*%
X76050000Y-74000000D03*
%TO.P,D2,2,A_2*%
%TO.N,GND*%
X73950000Y-74000000D03*
%TD*%
D20*
%TO.P,R1,1*%
%TO.N,GND*%
X78675000Y-74000000D03*
%TO.P,R1,2*%
%TO.N,Net-(J1-CC1)*%
X80325000Y-74000000D03*
%TD*%
D21*
%TO.P,C2,1*%
%TO.N,+3V3*%
X87000000Y-63000000D03*
%TO.P,C2,2*%
%TO.N,GND*%
X88900000Y-63000000D03*
%TD*%
D20*
%TO.P,R2,1*%
%TO.N,GND*%
X85175000Y-77000000D03*
%TO.P,R2,2*%
%TO.N,Net-(J1-CC2)*%
X86825000Y-77000000D03*
%TD*%
D22*
%TO.P,C1,1*%
%TO.N,+3V3*%
X89000000Y-64950000D03*
%TO.P,C1,2*%
%TO.N,GND*%
X89000000Y-66500000D03*
%TD*%
D23*
%TO.P,C3,1*%
%TO.N,/NRST*%
X89000000Y-69550000D03*
%TO.P,C3,2*%
%TO.N,GND*%
X89000000Y-68000000D03*
%TD*%
D24*
%TO.P,C4,1*%
%TO.N,/USB_5V*%
X85500000Y-81450000D03*
%TO.P,C4,2*%
%TO.N,GND*%
X85500000Y-79550000D03*
%TD*%
D25*
%TO.P,J2,1,Pin_1_1*%
%TO.N,+3V3*%
X77000000Y-52880000D03*
D26*
%TO.P,J2,2,Pin_2_2*%
%TO.N,/SWDIO*%
X77000000Y-55420000D03*
%TO.P,J2,3,Pin_3_3*%
%TO.N,/SWCLK*%
X77000000Y-57960000D03*
%TO.P,J2,4,Pin_4_4*%
%TO.N,/NRST*%
X77000000Y-60500000D03*
%TO.P,J2,5,Pin_5_5*%
%TO.N,GND*%
X77000000Y-63040000D03*
%TD*%
D27*
%TO.N,GND*%
X88000000Y-66500000D03*
X99000000Y-81500000D03*
X91500000Y-82500000D03*
X82174265Y-75174265D03*
X77500000Y-74000000D03*
X85000000Y-75500000D03*
X75000000Y-72000000D03*
X77000000Y-67000000D03*
X89000000Y-60000000D03*
%TD*%
%TO.N,+3V3*%
D28*
X88950000Y-64950000D02*
X89000000Y-64950000D01*
X93137500Y-79550000D02*
X98350000Y-74337500D01*
X75850000Y-54030000D02*
X75850000Y-58436346D01*
X87000000Y-63000000D02*
X88950000Y-64950000D01*
X83350000Y-59350000D02*
X87000000Y-63000000D01*
X98350000Y-74337500D02*
X98350000Y-69870494D01*
X75850000Y-58436346D02*
X76763654Y-59350000D01*
X77000000Y-52880000D02*
X75850000Y-54030000D01*
X98350000Y-69870494D02*
X94579506Y-66100000D01*
X76763654Y-59350000D02*
X83350000Y-59350000D01*
X94579506Y-66100000D02*
X90825000Y-66100000D01*
X89000000Y-64950000D02*
X90150000Y-66100000D01*
X93137500Y-79550000D02*
X97500000Y-79550000D01*
X90150000Y-66100000D02*
X90825000Y-66100000D01*
%TO.N,GND*%
X88900000Y-60100000D02*
X89000000Y-60000000D01*
X89400000Y-66900000D02*
X90825000Y-66900000D01*
X88900000Y-63000000D02*
X88900000Y-60100000D01*
X78675000Y-74000000D02*
X77500000Y-74000000D01*
X85500000Y-77325000D02*
X85175000Y-77000000D01*
X89000000Y-66500000D02*
X88000000Y-66500000D01*
X75050000Y-76500000D02*
X75050000Y-76050000D01*
X91825000Y-81109448D02*
X91825000Y-82175000D01*
X85175000Y-75675000D02*
X85000000Y-75500000D01*
X75050000Y-76050000D02*
X73950000Y-74950000D01*
X98950000Y-81450000D02*
X99000000Y-81500000D01*
X89000000Y-66500000D02*
X89000000Y-68000000D01*
X81450000Y-76500000D02*
X81450000Y-75898530D01*
X85500000Y-79550000D02*
X85500000Y-77325000D01*
X73950000Y-74950000D02*
X73950000Y-74000000D01*
X91215552Y-80500000D02*
X91825000Y-81109448D01*
X97500000Y-81450000D02*
X98950000Y-81450000D01*
X85175000Y-77000000D02*
X85175000Y-75675000D01*
X89000000Y-66500000D02*
X89400000Y-66900000D01*
X73950000Y-74000000D02*
X75000000Y-72950000D01*
X77000000Y-63040000D02*
X77000000Y-67000000D01*
X91825000Y-82175000D02*
X91500000Y-82500000D01*
X90862500Y-80500000D02*
X91215552Y-80500000D01*
X75000000Y-72950000D02*
X75000000Y-72000000D01*
X81450000Y-75898530D02*
X82174265Y-75174265D01*
%TO.N,/NRST*%
X89775000Y-68000001D02*
X90075001Y-67700000D01*
X89000000Y-69550000D02*
X89775000Y-68775000D01*
X90075001Y-67700000D02*
X90825000Y-67700000D01*
X89775000Y-68775000D02*
X89775000Y-68000001D01*
X86050000Y-69550000D02*
X89000000Y-69550000D01*
X77000000Y-60500000D02*
X86050000Y-69550000D01*
%TO.N,/USB_5V*%
X75850000Y-76500000D02*
X75850000Y-74200000D01*
X89900000Y-80840552D02*
X89900000Y-79850001D01*
X80650000Y-76500000D02*
X80650000Y-75850000D01*
X84475000Y-80425000D02*
X85500000Y-81450000D01*
X84475000Y-76512352D02*
X84475000Y-80425000D01*
X81187648Y-73225000D02*
X82231324Y-74268676D01*
X85500000Y-81450000D02*
X90862500Y-81450000D01*
X90200001Y-79550000D02*
X90862500Y-79550000D01*
X90862500Y-81450000D02*
X90509448Y-81450000D01*
X80650000Y-75850000D02*
X82231324Y-74268676D01*
X89900000Y-79850001D02*
X90200001Y-79550000D01*
X82231324Y-74268676D02*
X84475000Y-76512352D01*
X90509448Y-81450000D02*
X89900000Y-80840552D01*
X76050000Y-74000000D02*
X76825000Y-73225000D01*
X76825000Y-73225000D02*
X81187648Y-73225000D01*
X75850000Y-74200000D02*
X76050000Y-74000000D01*
%TO.N,Net-(J1-CC1)*%
X77892590Y-75000000D02*
X77000000Y-75892590D01*
X79325000Y-75000000D02*
X77892590Y-75000000D01*
X77000000Y-75892590D02*
X77000000Y-76500000D01*
X80325000Y-74000000D02*
X79325000Y-75000000D01*
%TO.N,Net-(J1-CC2)*%
X91825000Y-80240552D02*
X92434448Y-80850000D01*
X94100000Y-81790552D02*
X92790552Y-83100000D01*
X89615552Y-77000000D02*
X91825000Y-79209448D01*
X91825000Y-79209448D02*
X91825000Y-80240552D01*
X92434448Y-80850000D02*
X93840552Y-80850000D01*
X80860406Y-78250000D02*
X80000000Y-77389594D01*
X85640256Y-83100000D02*
X84475000Y-81934744D01*
X80000000Y-77389594D02*
X80000000Y-76500000D01*
X84475000Y-81305406D02*
X81419594Y-78250000D01*
X84475000Y-81934744D02*
X84475000Y-81305406D01*
X81419594Y-78250000D02*
X80860406Y-78250000D01*
X86825000Y-77000000D02*
X89615552Y-77000000D01*
X94100000Y-81109448D02*
X94100000Y-81790552D01*
X93840552Y-80850000D02*
X94100000Y-81109448D01*
X92790552Y-83100000D02*
X85640256Y-83100000D01*
%TO.N,/SWCLK*%
X97800000Y-61575001D02*
X94184999Y-57960000D01*
X97800000Y-62325000D02*
X97800000Y-61575001D01*
X94184999Y-57960000D02*
X77000000Y-57960000D01*
%TO.N,/SWDIO*%
X99175000Y-62345494D02*
X92249506Y-55420000D01*
X99175000Y-63700000D02*
X99175000Y-62345494D01*
X92249506Y-55420000D02*
X77000000Y-55420000D01*
%TD*%
M02*
